<svg width="141" height="77" viewBox="0 0 141 77" fill="none" xmlns="http://www.w3.org/2000/svg">
<g id="6405f1d2b3eb7d3da2fd18f6_file%20(26).svg">
<path id="Vector" opacity="0.7" fill-rule="evenodd" clip-rule="evenodd" d="M23.8321 38.7498H35.4082L46.9844 21.2102H35.4082L23.8321 38.7498ZM46.9836 56.2897H35.4073L23.8312 38.7502H35.4073L46.9836 56.2897Z" fill="white"/>
<path id="Vector_2" d="M32.603 38.7498H44.1791L32.603 21.2102H21.0269L32.603 38.7498Z" fill="white"/>
<path id="Vector_3" d="M32.6024 56.2897H21.0262L32.6024 38.75H44.1783L32.6024 56.2897Z" fill="white"/>
<path id="Vector_4" d="M52.7144 38.5855C52.7144 37.0019 53.0681 35.5874 53.7753 34.342C54.4977 33.0813 55.474 32.105 56.7042 31.4132C57.9497 30.7059 59.3407 30.3523 60.8782 30.3523C62.6772 30.3523 64.2531 30.8135 65.6061 31.736C66.959 32.6585 67.9044 33.9346 68.4427 35.5643H64.7296C64.3606 34.7956 63.838 34.219 63.1617 33.8347C62.5003 33.4503 61.7317 33.2581 60.8553 33.2581C59.9175 33.2581 59.0796 33.481 58.3415 33.9269C57.6187 34.3574 57.05 34.9724 56.6348 35.7719C56.2353 36.5714 56.0352 37.5092 56.0352 38.5855C56.0352 39.6463 56.2353 40.5842 56.6348 41.3992C57.05 42.1986 57.6187 42.8212 58.3415 43.2672C59.0796 43.6976 59.9175 43.913 60.8553 43.913C61.7317 43.913 62.5003 43.7204 63.1617 43.3362C63.838 42.9367 64.3606 42.3523 64.7296 41.5837H68.4427C67.9044 43.2287 66.959 44.5122 65.6061 45.4348C64.2684 46.3421 62.6924 46.7958 60.8782 46.7958C59.3407 46.7958 57.9497 46.4496 56.7042 45.7577C55.474 45.0505 54.4977 44.0742 53.7753 42.8288C53.0681 41.5837 52.7144 40.169 52.7144 38.5855Z" fill="white"/>
<path id="Vector_5" d="M75.9512 46.8648C74.7214 46.8648 73.6143 46.5957 72.6304 46.0578C71.6465 45.5043 70.8699 44.7277 70.3011 43.7286C69.7476 42.729 69.4708 41.5758 69.4708 40.2691C69.4708 38.9622 69.7552 37.8091 70.324 36.8098C70.9084 35.8104 71.7002 35.0417 72.6994 34.5036C73.6989 33.9501 74.8136 33.6733 76.0434 33.6733C77.2736 33.6733 78.3883 33.9501 79.3875 34.5036C80.3871 35.0417 81.1712 35.8104 81.74 36.8098C82.324 37.8091 82.6164 38.9622 82.6164 40.2691C82.6164 41.5758 82.3164 42.729 81.7167 43.7286C81.1327 44.7277 80.3333 45.5043 79.3185 46.0578C78.3189 46.5957 77.1966 46.8648 75.9512 46.8648ZM75.9512 44.0514C76.5356 44.0514 77.0815 43.9131 77.5889 43.6363C78.1116 43.3439 78.5267 42.9135 78.834 42.3447C79.1416 41.7759 79.2952 41.084 79.2952 40.2691C79.2952 39.0545 78.9723 38.1243 78.3266 37.4786C77.6964 36.8175 76.9199 36.4869 75.9973 36.4869C75.0751 36.4869 74.2986 36.8175 73.6681 37.4786C73.0532 38.1243 72.7455 39.0545 72.7455 40.2691C72.7455 41.4835 73.0455 42.4217 73.6452 43.0828C74.2601 43.7286 75.029 44.0514 75.9512 44.0514Z" fill="white"/>
<path id="Vector_6" d="M87.291 44.0977H90.8147V46.6575H84.062V29.5913H87.291V44.0977Z" fill="white"/>
<path id="Vector_7" d="M91.6755 40.223C91.6755 38.9315 91.9294 37.7861 92.4364 36.7867C92.9595 35.7874 93.659 35.0186 94.5355 34.4805C95.4271 33.9424 96.4187 33.6733 97.5105 33.6733C98.4635 33.6733 99.2938 33.8655 100.001 34.2499C100.724 34.6342 101.3 35.1185 101.731 35.7028V33.8809H104.982V46.6571H101.731V44.7892C101.315 45.3888 100.739 45.8886 100.001 46.2881C99.2786 46.6728 98.4407 46.8649 97.4872 46.8649C96.4111 46.8649 95.4271 46.5882 94.5355 46.0346C93.659 45.4811 92.9595 44.7045 92.4364 43.7054C91.9294 42.6906 91.6755 41.5297 91.6755 40.223ZM101.731 40.2691C101.731 39.485 101.577 38.8162 101.269 38.2627C100.962 37.6938 100.547 37.2633 100.024 36.9712C99.5012 36.6637 98.9401 36.51 98.3404 36.51C97.7407 36.51 97.1876 36.656 96.6802 36.9481C96.1728 37.2403 95.7576 37.6708 95.4347 38.2396C95.1271 38.7931 94.9735 39.4542 94.9735 40.223C94.9735 40.9919 95.1271 41.6681 95.4347 42.2525C95.7576 42.8213 96.1728 43.2593 96.6802 43.567C97.2028 43.8746 97.7564 44.0283 98.3404 44.0283C98.9401 44.0283 99.5012 43.8823 100.024 43.5899C100.547 43.2826 100.962 42.8522 101.269 42.2987C101.577 41.7295 101.731 41.0532 101.731 40.2691Z" fill="white"/>
<path id="Vector_8" d="M110.442 35.7489C110.857 35.1339 111.426 34.6342 112.149 34.2499C112.887 33.8655 113.725 33.6733 114.662 33.6733C115.754 33.6733 116.738 33.9424 117.614 34.4805C118.506 35.0186 119.206 35.7874 119.713 36.7867C120.236 37.7707 120.497 38.9161 120.497 40.223C120.497 41.5297 120.236 42.6906 119.713 43.7054C119.206 44.7045 118.506 45.4811 117.614 46.0346C116.738 46.5882 115.754 46.8649 114.662 46.8649C113.709 46.8649 112.871 46.6804 112.149 46.3114C111.441 45.9271 110.873 45.435 110.442 44.8353V46.6571H107.213V29.5913H110.442V35.7489ZM117.199 40.223C117.199 39.4542 117.038 38.7931 116.715 38.2396C116.407 37.6708 115.993 37.2403 115.469 36.9481C114.962 36.656 114.409 36.51 113.809 36.51C113.225 36.51 112.671 36.6637 112.149 36.9712C111.641 37.2633 111.226 37.6938 110.903 38.2627C110.596 38.8315 110.442 39.5004 110.442 40.2691C110.442 41.038 110.596 41.7066 110.903 42.2754C111.226 42.8442 111.641 43.2826 112.149 43.5898C112.671 43.8823 113.225 44.0283 113.809 44.0283C114.409 44.0283 114.962 43.8746 115.469 43.567C115.993 43.2593 116.407 42.8213 116.715 42.2525C117.038 41.6834 117.199 41.0071 117.199 40.223Z" fill="white"/>
</g>
</svg>
