<svg width="134" height="151" viewBox="0 0 134 151" fill="none" xmlns="http://www.w3.org/2000/svg">
<g id="Logo">
<path id="Union" fill-rule="evenodd" clip-rule="evenodd" d="M81.9914 16.0144C81.8039 20.1088 81.4333 28.3021 81.2145 33.7851L81.2235 33.7941C81.1208 36.3302 83.5855 38.1832 85.9966 37.3884L129.32 25.0159C130.705 24.5604 131.682 23.3192 131.803 21.868L133.268 4.47684C133.482 1.88714 130.999 -0.0908592 128.526 0.708377L84.5097 12.7237C83.063 13.1881 82.0629 14.5008 81.9914 16.0144ZM44.3001 28.6101V40.0003C44.3001 42.2373 46.3808 43.8893 48.5597 43.3848L64.473 39.6967C66.0447 39.3305 67.1609 37.9285 67.1609 36.3122V24.0066C67.1609 21.6938 64.9463 20.0283 62.7227 20.6713L46.8094 25.2747C45.3226 25.7033 44.3001 27.0652 44.3001 28.6101ZM37.9561 149.104L37.9564 149.104L37.9519 149.099C73.9532 141.803 72.4932 97.0728 71.2385 83.7537C71.051 81.798 69.1355 80.5031 67.2513 81.0568L50.195 86.0933C48.6501 86.5532 47.6946 88.116 48.025 89.6966C54.8252 122.764 35.1792 126.792 35.1792 126.792C28.0307 128.716 23.0835 127.725 19.6812 125.198C16.9754 123.184 13.2828 123.139 10.5904 125.176L3.70987 130.382C-0.223791 133.364 -0.299692 139.307 3.62951 142.299C6.83091 144.737 10.452 146.706 14.3946 148.081C26.5376 152.322 36.7343 149.441 37.7517 149.154L37.7555 149.153C37.8223 149.13 37.8892 149.117 37.9561 149.104ZM44.3001 74.1049V62.8308C44.3001 60.8349 45.595 59.0668 47.4971 58.4595L117.276 36.3488C120.308 35.3888 123.371 37.7329 123.241 40.9076L122.594 56.4904C122.509 58.5086 121.116 60.2321 119.156 60.7367L50.0287 78.5431C47.1265 79.2888 44.3001 77.1009 44.3001 74.1049Z" fill="url(#paint0_linear_0_560)"/>
</g>
<defs>
<linearGradient id="paint0_linear_0_560" x1="67.0006" y1="0.528809" x2="67.0006" y2="150.376" gradientUnits="userSpaceOnUse">
<stop stop-opacity="0.6"/>
<stop offset="1" stop-color="#F4F4F4"/>
</linearGradient>
</defs>
</svg>
