<svg width="25" height="26" viewBox="0 0 25 26" fill="none" xmlns="http://www.w3.org/2000/svg">
<g id="logomark" clip-path="url(#clip0_0_309)">
<path id="Vector" d="M12.495 6.05663C13.8578 6.05663 15.1071 4.9209 15.1071 3.44445C15.1071 1.968 13.8578 0.832275 12.495 0.832275C11.1321 0.832275 9.88279 1.968 9.88279 3.44445C9.88279 4.9209 11.1321 6.05663 12.495 6.05663ZM12.495 25.8183C13.8578 25.8183 15.1071 24.6826 15.1071 23.2061C15.1071 21.7297 13.9714 20.594 12.495 20.594C11.1321 20.594 9.88279 21.7297 9.88279 23.2061C9.88279 24.6826 11.1321 25.8183 12.495 25.8183ZM4.09057 10.9403C5.45345 10.9403 6.70275 9.80453 6.70275 8.32809C6.70275 6.85164 5.56702 5.71591 4.09057 5.71591C2.7277 5.71591 1.47839 6.85164 1.47839 8.32809C1.59197 9.80453 2.7277 10.9403 4.09057 10.9403ZM20.8994 20.8211C22.2622 20.8211 23.5115 19.6854 23.5115 18.2089C23.5115 16.7325 22.3758 15.5968 20.8994 15.5968C19.5365 15.5968 18.2872 16.7325 18.2872 18.2089C18.2872 19.6854 19.4229 20.8211 20.8994 20.8211ZM20.8994 10.9403C22.2622 10.9403 23.5115 9.80453 23.5115 8.32809C23.5115 6.85164 22.3758 5.71591 20.8994 5.71591C19.5365 5.71591 18.2872 6.85164 18.2872 8.32809C18.2872 9.80453 19.4229 10.9403 20.8994 10.9403ZM4.09057 20.8211C5.45345 20.8211 6.70275 19.6854 6.70275 18.2089C6.70275 16.7325 5.56702 15.5968 4.09057 15.5968C2.7277 15.5968 1.47839 16.7325 1.47839 18.2089C1.47839 19.6854 2.7277 20.8211 4.09057 20.8211Z" fill="#E9E8E3"/>
</g>
<defs>
<clipPath id="clip0_0_309">
<rect width="24.986" height="24.986" fill="white" transform="translate(0.00476074 0.832031)"/>
</clipPath>
</defs>
</svg>
