<svg width="161" height="65" viewBox="0 0 161 65" fill="none" xmlns="http://www.w3.org/2000/svg">
<g id="62948da133518fd4d14fc0da_file%20(13).svg">
<path id="Vector" fill-rule="evenodd" clip-rule="evenodd" d="M48.4098 31.4603C49.0314 34.4249 48.7436 37.1822 47.7393 39.4815L47.7925 39.4805C46.9318 41.837 44.0678 46.7671 37.3252 48.1807C37.0686 48.2346 36.8127 48.2773 36.5571 48.3092C35.9139 48.4038 35.2463 48.4528 34.5577 48.4528C26.5725 48.4528 18.7213 41.8797 17.0215 33.7712C16.2118 29.909 16.9438 26.3951 18.7956 23.774C19.6557 22.1183 24.1681 18.103 27.8096 17.3228C27.9082 17.3016 28.0029 17.2851 28.0941 17.2729C29.0565 17.0385 30.0831 16.9148 31.1638 16.9148C39.0043 16.9148 46.7258 23.4271 48.4098 31.4603ZM45.665 30.7806C46.987 37.0873 43.0668 42.1994 36.9086 42.1994C30.7508 42.1994 24.6869 37.0873 23.3649 30.7806C22.0428 24.4741 25.963 19.3617 32.121 19.3617C38.2789 19.3617 44.3427 24.4741 45.665 30.7806ZM36.5331 38.6651C41.091 38.6651 44.0116 34.9713 43.0562 30.4144C42.1012 25.8577 37.6317 22.1637 33.0738 22.1637C28.5158 22.1637 25.5953 25.8577 26.5505 30.4144C27.5058 34.9713 31.9751 38.6651 36.5331 38.6651ZM40.5933 30.0725C41.1925 32.931 39.3108 35.2482 36.3899 35.2482C33.4694 35.2482 30.6158 32.931 30.0166 30.0725C29.4173 27.2139 31.2992 24.8967 34.22 24.8967C37.1406 24.8967 39.9941 27.2139 40.5933 30.0725ZM37.9152 30.0726C38.2109 31.4834 37.2822 32.627 35.8406 32.627C34.3991 32.627 32.9909 31.4834 32.6951 30.0726C32.3994 28.6618 33.3281 27.5181 34.7696 27.5181C36.2112 27.5181 37.6196 28.6618 37.9152 30.0726Z" fill="white"/>
<path id="Vector_2" d="M69.538 39.9113C69.538 40.0927 69.6851 40.2398 69.8665 40.2398H72.3639C72.5452 40.2398 72.6924 40.0927 72.6924 39.9113V27.9172H69.8665C69.6851 27.9172 69.538 28.0643 69.538 28.2458V39.9113Z" fill="white"/>
<path id="Vector_3" d="M69.6398 25.9655C69.9424 26.2832 70.4037 26.4421 71.0239 26.4421C71.6441 26.4421 72.0982 26.2832 72.3856 25.9655C72.6731 25.6327 72.8166 25.2242 72.8166 24.7401C72.8166 24.2257 72.6731 23.8096 72.3856 23.492C72.0982 23.1743 71.6441 23.0154 71.0239 23.0154C70.4037 23.0154 69.9424 23.1743 69.6398 23.492C69.3524 23.8096 69.2085 24.2257 69.2085 24.7401C69.2085 25.2242 69.3524 25.6327 69.6398 25.9655Z" fill="white"/>
<path id="Vector_4" fill-rule="evenodd" clip-rule="evenodd" d="M64.5658 34.4756C63.5973 34.9296 62.4173 35.1563 61.0256 35.1563H58.5292V39.9113C58.5292 40.0926 58.382 40.2398 58.2007 40.2398H55.6353C55.4539 40.2398 55.3068 40.0926 55.3068 39.9113V23.8886C55.3068 23.7071 55.4539 23.5601 55.6353 23.5601H58.2007C58.2362 23.5601 58.2703 23.5657 58.3022 23.5761C58.3344 23.5657 58.3686 23.5601 58.4041 23.5601H61.0256C62.4173 23.5601 63.5973 23.787 64.5658 24.2409C65.549 24.6947 66.2981 25.3453 66.8122 26.1925C67.3267 27.0246 67.5839 28.0155 67.5839 29.1653V29.5284C67.5839 30.6782 67.3267 31.6767 66.8122 32.5239C66.2981 33.356 65.549 34.0065 64.5658 34.4756ZM62.9317 26.7371C62.4931 26.4799 61.9485 26.3513 61.298 26.3513H58.5292V32.3651H61.298C61.9485 32.3651 62.4931 32.2365 62.9317 31.9793C63.3857 31.7221 63.7261 31.3666 63.9531 30.9127C64.1952 30.4588 64.3161 29.9369 64.3161 29.3468C64.3161 28.7568 64.1952 28.2349 63.9531 27.781C63.7261 27.3271 63.3857 26.9792 62.9317 26.7371Z" fill="white"/>
<path id="Vector_5" d="M75.5216 40.2397C75.3403 40.2397 75.1931 40.0925 75.1931 39.9111V28.2456C75.1931 28.0641 75.3403 27.9171 75.5216 27.9171H77.361C77.5424 27.9171 77.6895 28.0641 77.6895 28.2456V30.9536C77.7625 30.6376 77.8531 30.344 77.9619 30.0729C78.2947 29.2257 78.7861 28.5903 79.4369 28.1667C80.1025 27.7431 80.9271 27.5312 81.9104 27.5312H82.0464C83.5142 27.5312 84.6259 28.0078 85.3825 28.9609C86.1388 29.8989 86.5172 31.3059 86.5172 33.1819V39.9111C86.5172 40.0925 86.37 40.2397 86.1887 40.2397H83.6913C83.5099 40.2397 83.3628 40.0925 83.3628 39.9111V32.9096C83.3628 32.1531 83.1433 31.5404 82.7047 31.0714C82.2809 30.6024 81.6909 30.3679 80.9347 30.3679C80.163 30.3679 79.5352 30.61 79.0509 31.0941C78.5821 31.5631 78.3476 32.1985 78.3476 33.0004V39.9111C78.3476 40.0925 78.2004 40.2397 78.019 40.2397H75.5216Z" fill="white"/>
<path id="Vector_6" fill-rule="evenodd" clip-rule="evenodd" d="M98.2822 34.4756C97.3141 34.9296 96.134 35.1563 94.7421 35.1563H92.246V39.9113C92.246 40.0926 92.0988 40.2398 91.9175 40.2398H89.3517C89.1704 40.2398 89.0232 40.0926 89.0232 39.9113V23.8886C89.0232 23.7071 89.1704 23.5601 89.3517 23.5601H91.9175C91.9526 23.5601 91.9868 23.5657 92.019 23.5761C92.0508 23.5657 92.085 23.5601 92.1205 23.5601H94.7421C96.134 23.5601 97.3141 23.787 98.2822 24.2409C99.2655 24.6947 100.014 25.3453 100.529 26.1925C101.043 27.0246 101.3 28.0155 101.3 29.1653V29.5284C101.3 30.6782 101.043 31.6767 100.529 32.5239C100.014 33.356 99.2655 34.0065 98.2822 34.4756ZM96.6485 26.7371C96.2096 26.4799 95.6649 26.3513 95.0144 26.3513H92.246V32.3651H95.0144C95.6649 32.3651 96.2096 32.2365 96.6485 31.9793C97.1022 31.7221 97.4425 31.3666 97.6695 30.9127C97.9116 30.4588 98.0325 29.9369 98.0325 29.3468C98.0325 28.7568 97.9116 28.2349 97.6695 27.781C97.4425 27.3271 97.1022 26.9792 96.6485 26.7371Z" fill="white"/>
<path id="Vector_7" fill-rule="evenodd" clip-rule="evenodd" d="M108.321 40.6706C107.232 40.6706 106.272 40.4969 105.439 40.1486C104.608 39.8007 103.904 39.3319 103.329 38.7419C102.754 38.1364 102.315 37.4557 102.013 36.6995C101.725 35.9429 101.582 35.1561 101.582 34.3391V33.8627C101.582 33.0155 101.733 32.2136 102.036 31.4572C102.353 30.6856 102.799 30.0048 103.374 29.4148C103.964 28.8096 104.676 28.3406 105.508 28.0078C106.34 27.6598 107.278 27.4858 108.321 27.4858C109.366 27.4858 110.303 27.6598 111.136 28.0078C111.968 28.3406 112.671 28.8096 113.246 29.4148C113.836 30.0048 114.282 30.6856 114.585 31.4572C114.888 32.2136 115.039 33.0155 115.039 33.8627V34.3391C115.039 35.1561 114.888 35.9429 114.585 36.6995C114.298 37.4557 113.866 38.1364 113.291 38.7419C112.716 39.3319 112.013 39.8007 111.181 40.1486C110.349 40.4969 109.396 40.6706 108.321 40.6706ZM108.321 37.9702C109.093 37.9702 109.744 37.8036 110.273 37.4709C110.803 37.123 111.204 36.6614 111.476 36.0865C111.748 35.4964 111.884 34.8309 111.884 34.0897C111.884 33.3332 111.741 32.6675 111.453 32.0926C111.181 31.5026 110.773 31.0411 110.228 30.7083C109.698 30.3603 109.063 30.1863 108.321 30.1863C107.58 30.1863 106.937 30.3603 106.393 30.7083C105.863 31.0411 105.455 31.5026 105.167 32.0926C104.88 32.6675 104.736 33.3332 104.736 34.0897C104.736 34.8309 104.872 35.4964 105.144 36.0865C105.432 36.6614 105.84 37.123 106.37 37.4709C106.899 37.8036 107.55 37.9702 108.321 37.9702Z" fill="white"/>
<path id="Vector_8" d="M117.256 39.9113C117.256 40.0927 117.403 40.2398 117.585 40.2398H120.082C120.263 40.2398 120.411 40.0927 120.411 39.9113V27.9172H117.585C117.403 27.9172 117.256 28.0643 117.256 28.2458V39.9113Z" fill="white"/>
<path id="Vector_9" d="M117.358 25.9655C117.66 26.2832 118.122 26.4421 118.742 26.4421C119.362 26.4421 119.816 26.2832 120.104 25.9655C120.391 25.6327 120.535 25.2242 120.535 24.7401C120.535 24.2257 120.391 23.8096 120.104 23.492C119.816 23.1743 119.362 23.0154 118.742 23.0154C118.122 23.0154 117.66 23.1743 117.358 23.492C117.07 23.8096 116.927 24.2257 116.927 24.7401C116.927 25.2242 117.07 25.6327 117.358 25.9655Z" fill="white"/>
<path id="Vector_10" d="M123.24 40.2397C123.058 40.2397 122.911 40.0925 122.911 39.9111V28.2456C122.911 28.0641 123.058 27.9171 123.24 27.9171H125.079C125.26 27.9171 125.407 28.0641 125.407 28.2456V30.9536C125.481 30.6376 125.571 30.344 125.68 30.0729C126.013 29.2257 126.504 28.5903 127.155 28.1667C127.82 27.7431 128.645 27.5312 129.629 27.5312H129.765C131.232 27.5312 132.344 28.0078 133.1 28.9609C133.857 29.8989 134.235 31.3059 134.235 33.1819V39.9111C134.235 40.0925 134.088 40.2397 133.907 40.2397H131.41C131.228 40.2397 131.081 40.0925 131.081 39.9111V32.9096C131.081 32.1531 130.862 31.5404 130.423 31.0714C129.999 30.6024 129.409 30.3679 128.653 30.3679C127.881 30.3679 127.253 30.61 126.769 31.0941C126.3 31.5631 126.066 32.1985 126.066 33.0004V39.9111C126.066 40.0925 125.919 40.2397 125.737 40.2397H123.24Z" fill="white"/>
<path id="Vector_11" d="M139.033 39.9674C139.775 40.2549 140.713 40.3984 141.848 40.3984H143.289C143.47 40.3984 143.618 40.2513 143.618 40.0699V38.0265C143.618 37.8452 143.47 37.698 143.289 37.698H141.689C141.083 37.698 140.614 37.539 140.282 37.2213C139.964 36.8885 139.805 36.4197 139.805 35.8146L139.816 30.2319H143.289C143.47 30.2319 143.618 30.0848 143.618 29.9034V28.2457C143.618 28.0642 143.47 27.9172 143.289 27.9172H139.821L139.827 24.7742C139.828 24.5925 139.68 24.4451 139.499 24.4451H137.206C137.024 24.4451 136.877 24.5918 136.877 24.7729L136.871 27.9172H135.232C135.05 27.9172 134.903 28.0642 134.903 28.2457V29.9034C134.903 30.0848 135.05 30.2319 135.232 30.2319H136.866L136.855 35.6103C136.855 36.8054 137.036 37.7585 137.399 38.4697C137.763 39.1655 138.307 39.6649 139.033 39.9674Z" fill="white"/>
</g>
</svg>
