<svg width="131" height="60" viewBox="0 0 131 60" fill="none" xmlns="http://www.w3.org/2000/svg">
<g id="62948d50e865837e90b9d096_file%20(1).svg">
<path id="Vector" d="M73.8333 41.0847C73.8333 41.391 74.089 41.6349 74.3953 41.6204L78.9336 41.4036C79.2196 41.3898 79.4444 41.1539 79.4444 40.8675V26.526C79.4444 26.2213 79.1909 25.9777 78.8866 25.9899L74.3483 26.1715C74.0604 26.183 73.8333 26.4196 73.8333 26.7075V41.0847Z" fill="white"/>
<path id="Vector_2" d="M74.5386 23.3061C75.0941 23.8619 75.7888 24.1398 76.6227 24.1398C77.499 24.1398 78.2044 23.8619 78.739 23.3061C79.2949 22.729 79.5728 22.0128 79.5728 21.1578C79.5728 20.3241 79.2949 19.6187 78.739 19.0415C78.2044 18.4644 77.499 18.1758 76.6227 18.1758C75.7888 18.1758 75.0941 18.4644 74.5386 19.0415C73.9827 19.6187 73.7047 20.3241 73.7047 21.1578C73.7047 22.0128 73.9827 22.729 74.5386 23.3061Z" fill="white"/>
<path id="Vector_3" fill-rule="evenodd" clip-rule="evenodd" d="M60.331 32.4446V40.2397C60.331 40.4982 60.1471 40.7195 59.8932 40.7673L55.2264 41.6394C54.8964 41.7014 54.5913 41.4479 54.5913 41.1122V19.4498C54.5913 19.1535 54.8318 18.9133 55.1281 18.9133H64.2752C65.8141 18.9133 67.161 19.2019 68.3153 19.7791C69.491 20.3562 70.4102 21.1472 71.0727 22.1518C71.7353 23.1566 72.0668 24.3323 72.0668 25.679C72.0668 27.0257 71.7246 28.2121 71.0406 29.2382C70.378 30.2429 69.4482 31.0338 68.2511 31.611C67.7334 31.8514 67.1775 32.0398 66.5833 32.1762L72.6705 40.4615C72.9668 40.8648 72.5983 41.4185 72.1119 41.3007L67.0804 40.0807C66.9661 40.0527 66.8643 39.9885 66.7902 39.8971L60.7416 32.4446H60.331ZM60.331 28.3404H63.4734C64.4139 28.3404 65.1301 28.1159 65.6218 27.667C66.1348 27.1967 66.3914 26.5661 66.3914 25.7752C66.3914 25.0056 66.1348 24.3857 65.6218 23.9154C65.1301 23.4238 64.4139 23.1779 63.4734 23.1779H60.331V28.3404Z" fill="white"/>
<path id="Vector_4" d="M87.0564 42.0959C86.0944 42.0959 85.1432 41.9678 84.2026 41.7113C83.2835 41.4548 82.4175 41.1129 81.6054 40.6851C80.9841 40.3326 80.4354 39.9403 79.959 39.5087C79.7442 39.314 79.7468 38.9814 79.9499 38.7738L82.2443 36.4311C82.4561 36.2149 82.8032 36.2189 83.0342 36.4147C83.4551 36.7714 83.93 37.062 84.4592 37.2864C85.186 37.5857 85.9552 37.7353 86.7677 37.7353C87.238 37.7353 87.5909 37.6712 87.826 37.5429C88.0826 37.4147 88.2107 37.233 88.2107 36.9978C88.2107 36.6558 88.029 36.3993 87.6654 36.2283C87.3236 36.0359 86.8641 35.8756 86.2867 35.7473C85.7308 35.5976 85.1432 35.4267 84.5234 35.2343C83.9032 35.0205 83.3049 34.7426 82.7275 34.4006C82.1502 34.0585 81.6799 33.5776 81.3167 32.9577C80.9745 32.3378 80.8036 31.5468 80.8036 30.5849C80.8036 29.5802 81.0709 28.7038 81.6054 27.9556C82.1609 27.186 82.9306 26.5875 83.9139 26.1599C84.8973 25.711 86.0516 25.4866 87.3768 25.4866C88.7237 25.4866 90.0061 25.7217 91.2246 26.192C92.2611 26.5738 93.3019 27.3134 94.0505 28.0915C94.2596 28.3092 94.2187 28.6557 93.979 28.8399L91.3252 30.8814C91.1019 31.053 90.788 31.0182 90.5788 30.8299C90.2145 30.5019 89.87 30.3311 89.397 30.168C88.7773 29.9329 88.2107 29.8153 87.6976 29.8153C87.2059 29.8153 86.8534 29.8901 86.6396 30.0398C86.4259 30.168 86.3188 30.3497 86.3188 30.5849C86.3188 30.8628 86.4897 31.0872 86.8319 31.2582C87.1952 31.4292 87.6547 31.5896 88.2107 31.7392C88.788 31.8674 89.3756 32.0385 89.9744 32.2522C90.5941 32.466 91.1818 32.7653 91.7377 33.15C92.315 33.5134 92.7746 34.0051 93.1164 34.625C93.48 35.2449 93.6616 36.0466 93.6616 37.0299C93.6616 38.5903 93.0633 39.8302 91.8662 40.7493C90.6691 41.6471 89.0656 42.0959 87.0564 42.0959Z" fill="white"/>
<path id="Vector_5" fill-rule="evenodd" clip-rule="evenodd" d="M97.8524 40.9738C99.1993 41.6578 100.749 42 102.502 42C103.891 42 105.131 41.7755 106.221 41.3267C107.173 40.9424 107.998 40.4018 108.699 39.7048C108.9 39.5056 108.888 39.1829 108.688 38.9829L106.53 36.825C106.31 36.606 105.954 36.6202 105.725 36.8283C105.358 37.1612 104.957 37.4207 104.522 37.6071C103.945 37.8636 103.272 37.9918 102.502 37.9918C101.69 37.9918 101.006 37.8315 100.45 37.5109C99.894 37.1902 99.4666 36.7199 99.1672 36.1C99.0938 35.943 99.0296 35.7783 98.9742 35.6059L109.556 35.5568C109.802 35.5557 110.017 35.3888 110.065 35.1483C110.118 34.8858 110.151 34.6473 110.166 34.4326C110.208 34.0906 110.229 33.7593 110.229 33.4386C110.229 31.9209 109.877 30.5742 109.171 29.3985C108.487 28.2014 107.526 27.2715 106.286 26.6088C105.067 25.9248 103.667 25.5828 102.085 25.5828C100.46 25.5828 98.9963 25.9462 97.6922 26.673C96.4098 27.3784 95.3943 28.351 94.6461 29.5908C93.8979 30.8093 93.5239 32.2095 93.5239 33.7913C93.5239 35.3946 93.9086 36.8161 94.6782 38.056C95.4478 39.2957 96.5058 40.2684 97.8524 40.9738ZM98.9623 32.0045C99.0124 31.8449 99.0697 31.6923 99.1351 31.5468C99.4131 30.9269 99.8084 30.4459 100.322 30.1039C100.835 29.7619 101.444 29.5908 102.149 29.5908C102.833 29.5908 103.4 29.7405 103.849 30.0397C104.297 30.339 104.64 30.7772 104.875 31.3544C104.952 31.5369 105.018 31.7368 105.072 31.9539L98.9623 32.0045Z" fill="white"/>
<path id="Vector_6" d="M103.613 23.3559V19.2174H104.665V23.3559H103.613ZM102.337 20.0933V19.188H105.941V20.0933H102.337ZM106.125 23.3559V19.188H106.884L108.483 21.6041H108.124L109.718 19.188H110.476V23.3559H109.435V20.928L109.6 20.975L108.642 22.4153H107.96L107.008 20.975L107.172 20.928V23.3559H106.125Z" fill="white"/>
<path id="Vector_7" d="M27.1892 17.0007C27.1892 16.6825 27.4261 16.4141 27.7419 16.3747L31.5274 15.9014C31.904 15.8544 32.2366 16.148 32.2366 16.5275V28.9785C32.2366 29.3581 31.904 29.6516 31.5274 29.6046L27.7419 29.1314C27.4261 29.0919 27.1892 28.8235 27.1892 28.5053V17.0007Z" fill="white"/>
<path id="Vector_8" d="M19.618 18.5781C19.618 18.2599 19.855 17.9915 20.1707 17.952L23.9563 17.4788C24.3329 17.4318 24.6655 17.7254 24.6655 18.1049V28.0322C24.6655 28.4117 24.3329 28.7053 23.9563 28.6582L20.1707 28.1851C19.855 28.1456 19.618 27.8772 19.618 27.559V18.5781Z" fill="white"/>
<path id="Vector_9" d="M39.3298 16.9553C39.6105 17.0255 39.8078 17.2779 39.8078 17.5674V22.8271C39.8078 23.1453 39.5707 23.4137 39.2549 23.4531L35.4694 23.9263C35.0929 23.9734 34.7603 23.6798 34.7603 23.3003V16.621C34.7603 16.2105 35.146 15.9093 35.5442 16.0089L39.3298 16.9553Z" fill="white"/>
<path id="Vector_10" d="M46.7481 19.1447C46.7481 18.8552 46.5508 18.6029 46.2701 18.5327L42.4846 17.5863C42.0862 17.4867 41.7004 17.7879 41.7004 18.1984V22.9849C41.7004 23.3644 42.0331 23.658 42.4097 23.6109L46.1952 23.1377C46.511 23.0983 46.7481 22.8299 46.7481 22.5117V19.1447Z" fill="white"/>
<path id="Vector_11" d="M46.748 25.5923L34.4449 25.9078C34.6229 28.2219 36.5525 30.0088 38.8734 30.0088H41.7004V32.6939L19.618 30.6397V43.7932L46.748 41.9002V25.5923Z" fill="white"/>
</g>
</svg>
