<svg width="180" height="70" viewBox="0 0 180 70" fill="none" xmlns="http://www.w3.org/2000/svg">
<g id="6405f1d2b3eb7d7c1bfd18f7_file%20(28).svg">
<path id="Vector" d="M19.6774 39.6783L29.6249 35.2507L35.3505 38.5713L36.5072 49.4649L29.4514 49.4069L30.4924 41.8337L29.2779 41.1343L23.3209 45.795L19.6774 39.6783Z" fill="white"/>
<path id="Vector_2" d="M35.9871 38.105L44.7781 44.5715L48.248 38.338L41.192 35.4835V34.0854L48.248 31.1726L44.7781 24.9976L35.9871 31.4639V38.105Z" fill="white"/>
<path id="Vector_3" d="M35.3505 30.9396L36.5072 20.0459L29.4514 20.1624L30.4924 27.7356L29.2779 28.4347L23.2631 23.7743L19.6774 29.8328L29.6249 34.2602L35.3505 30.9396Z" fill="white"/>
<path id="Vector_4" d="M71.7876 33.45V43.656H75.585V30.6494H70.0548V33.45H71.7876Z" fill="white"/>
<path id="Vector_5" d="M71.6688 28.8219C72.017 29.1857 72.547 29.3677 73.259 29.3677C73.9713 29.3677 74.4931 29.1857 74.8252 28.8219C75.1737 28.442 75.3474 27.9673 75.3474 27.3978C75.3474 26.8123 75.1737 26.3376 74.8252 25.9737C74.4931 25.594 73.9713 25.4041 73.259 25.4041C72.547 25.4041 72.017 25.594 71.6688 25.9737C71.3368 26.3376 71.1705 26.8123 71.1705 27.3978C71.1705 27.9673 71.3368 28.442 71.6688 28.8219Z" fill="white"/>
<path id="Vector_6" d="M58.5679 43.3709C59.6437 43.8613 60.9649 44.1067 62.5311 44.1067C64.0028 44.1067 65.2683 43.8774 66.3288 43.4183C67.3889 42.9596 68.2036 42.3186 68.7732 41.4961C69.3589 40.6571 69.6514 39.6841 69.6514 38.5765C69.6514 37.5006 69.375 36.5908 68.8211 35.847C68.2828 35.0876 67.5316 34.4942 66.566 34.0671C65.6008 33.6239 64.4854 33.347 63.2195 33.2364L61.8905 33.1177C61.0993 33.0543 60.5297 32.8408 60.1816 32.4768C59.8334 32.1129 59.6594 31.6856 59.6594 31.1953C59.6594 30.8153 59.7546 30.4673 59.944 30.1509C60.1341 29.8185 60.4187 29.5575 60.7986 29.3676C61.1942 29.1778 61.6768 29.0828 62.2465 29.0828C62.8475 29.0828 63.3461 29.1935 63.7417 29.4151C63.8288 29.462 63.9115 29.512 63.9891 29.5652L64.0079 29.5783C64.0369 29.5984 64.0656 29.6192 64.0934 29.6402C64.3337 29.8239 64.525 30.0416 64.6673 30.2932C64.8728 30.6414 64.9763 31.029 64.9763 31.4563H68.7732C68.7732 30.317 68.5121 29.328 67.9903 28.4895C67.4681 27.6351 66.7166 26.9784 65.7357 26.5194C64.7701 26.0447 63.6073 25.8074 62.2465 25.8074C60.9488 25.8074 59.8256 26.029 58.876 26.472C57.9269 26.8993 57.1832 27.5164 56.6453 28.3232C56.1227 29.1302 55.8616 30.0876 55.8616 31.1953C55.8616 32.73 56.3764 33.9641 57.4047 34.8978C58.433 35.8313 59.8099 36.3693 61.5345 36.5117L62.84 36.6303C63.8997 36.7253 64.6673 36.939 65.1421 37.2711C65.6165 37.5876 65.8541 38.0227 65.8541 38.5765C65.8541 38.831 65.8125 39.0697 65.729 39.2928C65.6671 39.4582 65.5824 39.6151 65.4746 39.7633C65.2209 40.0957 64.8493 40.3564 64.3588 40.5466C63.8684 40.7363 63.2591 40.8312 62.5311 40.8312C61.7243 40.8312 61.0676 40.7206 60.5615 40.4991C60.0549 40.2615 59.6754 39.953 59.4218 39.5735C59.1846 39.1936 59.0662 38.7823 59.0662 38.3391H55.2924C55.2924 39.4626 55.5691 40.4595 56.1227 41.3299C56.6767 42.1841 57.4917 42.8647 58.5679 43.3709Z" fill="white"/>
<path id="Vector_7" d="M84.0578 43.8218C82.7445 43.8218 81.6844 43.6638 80.8776 43.347C80.0704 43.015 79.4772 42.4692 79.0973 41.7098C78.7335 40.9344 78.5516 39.89 78.5516 38.5766V33.4262H76.5815V30.6494H78.5516V27.1367H82.0878V30.6494H85.8856V33.4262H82.0878V38.7191C82.0878 39.3362 82.2462 39.8108 82.5626 40.1428C82.8946 40.4596 83.3616 40.6176 83.963 40.6176H85.8856V43.8218H84.0578Z" fill="white"/>
<path id="Vector_8" fill-rule="evenodd" clip-rule="evenodd" d="M90.4576 43.5373C91.3119 43.9172 92.2932 44.1069 93.4007 44.1069C94.4922 44.1069 95.4578 43.9172 96.2964 43.5373C97.1349 43.1574 97.8312 42.6273 98.3848 41.9471C98.9387 41.2666 99.3108 40.4915 99.5002 39.6211H96.0113C95.8533 40.0167 95.5526 40.3488 95.1096 40.6177C94.6666 40.8871 94.0966 41.0215 93.4007 41.0215C92.9695 41.0215 92.5841 40.9706 92.2446 40.8682C91.9862 40.7906 91.7545 40.6836 91.5495 40.5468C91.0747 40.2304 90.7266 39.787 90.5051 39.2176C90.4435 39.0554 90.391 38.8857 90.3467 38.7089C90.3016 38.5299 90.2651 38.3435 90.2377 38.1496H99.7377V36.8679C99.7377 35.6812 99.4845 34.5894 98.9783 33.5926C98.4718 32.5798 97.7359 31.7649 96.7711 31.1479C95.8216 30.5149 94.6506 30.1985 93.258 30.1985C92.1979 30.1985 91.2484 30.3884 90.4098 30.7682C89.5877 31.132 88.8992 31.6304 88.3453 32.2633C87.7917 32.8962 87.3644 33.6163 87.0633 34.4233C86.7787 35.2143 86.6364 36.045 86.6364 36.9153V37.39C86.6364 38.2287 86.7787 39.0514 87.0633 39.8583C87.3644 40.6495 87.7917 41.3693 88.3453 42.0181C88.9149 42.6513 89.6186 43.1574 90.4576 43.5373ZM90.3032 35.8027C90.3137 35.7524 90.3247 35.7029 90.3369 35.6542C90.3698 35.52 90.4078 35.3914 90.451 35.2686C90.4753 35.1986 90.5011 35.1304 90.529 35.0641C90.7662 34.4786 91.1143 34.0356 91.573 33.735C91.7447 33.6226 91.9305 33.5313 92.1301 33.4609C92.4657 33.343 92.842 33.284 93.258 33.284C93.9072 33.284 94.4447 33.4344 94.8721 33.735C95.3151 34.0197 95.6475 34.439 95.869 34.9928C95.8871 35.0375 95.9039 35.083 95.9204 35.129C95.9467 35.2024 95.971 35.2777 95.9937 35.3549C96.027 35.4698 96.0564 35.5886 96.0823 35.7115C96.1011 35.8021 96.1172 35.8948 96.1317 35.9898H90.2667C90.2777 35.9263 90.2898 35.864 90.3032 35.8027Z" fill="white"/>
<path id="Vector_9" d="M101.305 43.6561V30.6495H104.319V33.9253C104.36 33.7306 104.407 33.5437 104.459 33.3645C104.504 33.2135 104.551 33.0679 104.604 32.928C104.936 32.0419 105.435 31.3774 106.099 30.9342C106.764 30.4754 107.578 30.2461 108.544 30.2461H108.71C109.691 30.2461 110.506 30.4754 111.155 30.9342C111.819 31.3774 112.318 32.0419 112.65 32.928L112.676 32.9949L112.698 33.056C112.713 33.0128 112.729 32.9702 112.745 32.928C113.093 32.0419 113.599 31.3774 114.264 30.9342C114.928 30.4754 115.743 30.2461 116.709 30.2461H116.875C117.855 30.2461 118.678 30.4754 119.343 30.9342C120.023 31.3774 120.538 32.0419 120.886 32.928C121.234 33.8141 121.408 34.9217 121.408 36.2508V43.6561H117.61V36.0372C117.61 35.3251 117.421 34.7476 117.041 34.3047C116.677 33.8615 116.155 33.64 115.475 33.64C114.794 33.64 114.256 33.8695 113.86 34.3283C113.465 34.7713 113.267 35.3647 113.267 36.1085V43.6561H109.446V36.0372C109.446 35.3251 109.256 34.7476 108.876 34.3047C108.512 33.8615 107.998 33.64 107.334 33.64C106.637 33.64 106.091 33.8695 105.696 34.3283C105.3 34.7713 105.102 35.3647 105.102 36.1085V43.6561H101.305Z" fill="white"/>
<path id="Vector_10" fill-rule="evenodd" clip-rule="evenodd" d="M131.552 41.1497V43.656H134.566V35.6811C134.566 34.4785 134.329 33.4976 133.854 32.738C133.379 31.9627 132.683 31.3852 131.766 31.0055C130.864 30.6257 129.748 30.4358 128.419 30.4358C128.131 30.4358 127.83 30.4388 127.517 30.4452C127.332 30.449 127.141 30.4537 126.947 30.4595C126.425 30.4753 125.919 30.499 125.429 30.5307L125.054 30.556C124.861 30.5694 124.68 30.5825 124.51 30.5959C124.383 30.6059 124.261 30.6158 124.147 30.6257V33.8299C124.637 33.7982 125.183 33.7665 125.784 33.7349C125.953 33.7261 126.119 33.7179 126.285 33.7103C126.524 33.6992 126.76 33.6896 126.993 33.6813C127.177 33.6746 127.36 33.6686 127.541 33.6637C128.11 33.6478 128.569 33.64 128.917 33.64C129.614 33.64 130.12 33.806 130.437 34.1383C130.753 34.4707 130.911 34.9691 130.911 35.6337V35.6811H128.561C127.406 35.6811 126.386 35.8315 125.499 36.1321C124.613 36.4168 123.925 36.8678 123.435 37.4849C122.944 38.0863 122.699 38.8616 122.699 39.8109C122.699 40.6812 122.897 41.4327 123.292 42.0659C123.688 42.683 124.234 43.1574 124.93 43.4898C125.642 43.8219 126.465 43.9881 127.398 43.9881C128.3 43.9881 129.06 43.8219 129.677 43.4898C130.31 43.1574 130.8 42.683 131.148 42.0659C131.21 41.9616 131.267 41.8538 131.32 41.7417C131.395 41.5833 131.462 41.4167 131.522 41.2418L131.552 41.1497ZM130.911 38.8379V37.7935H128.537C127.873 37.7935 127.359 37.9596 126.995 38.2919C126.647 38.6084 126.473 39.0435 126.473 39.5972C126.473 39.8579 126.516 40.0951 126.603 40.3084C126.69 40.5224 126.821 40.7126 126.995 40.8792C127.359 41.1956 127.873 41.3535 128.537 41.3535C128.664 41.3535 128.786 41.3473 128.904 41.3351C129.001 41.3249 129.095 41.3104 129.185 41.292C129.359 41.2567 129.523 41.2061 129.677 41.1399C130.025 40.9819 130.31 40.7208 130.531 40.3566C130.753 39.9928 130.88 39.4866 130.911 38.8379Z" fill="white"/>
<path id="Vector_11" d="M136.839 43.656V30.6495H139.853V34.9425C139.997 33.717 140.362 32.7288 140.945 31.9785C141.736 30.9818 142.875 30.4834 144.363 30.4834H144.861V33.7587H143.912C142.867 33.7587 142.06 34.0434 141.491 34.613C140.921 35.1669 140.636 35.9739 140.636 37.0339V43.656H136.839Z" fill="white"/>
<path id="Vector_12" d="M149.677 37.5799H150.935L155.04 43.656H159.313L154.106 36.1939L158.387 30.6495H154.4L149.677 36.8338V26.3298H145.879V43.656H149.677V37.5799Z" fill="white"/>
</g>
</svg>
