<svg width="9" height="8" viewBox="0 0 9 8" fill="none" xmlns="http://www.w3.org/2000/svg">
<path id="Vector" d="M8.08823 0.742679V6.22705C8.08823 6.31098 8.05493 6.39145 7.9956 6.45078C7.9362 6.5101 7.85573 6.54348 7.77188 6.54348C7.68795 6.54348 7.60748 6.5101 7.54808 6.45078C7.48875 6.39145 7.45545 6.31098 7.45545 6.22705V1.50733L1.24333 7.71415C1.18459 7.77288 1.10492 7.80588 1.02184 7.80588C0.938771 7.80588 0.859098 7.77288 0.800358 7.71415C0.741618 7.65543 0.708618 7.57578 0.708618 7.49268C0.708618 7.40958 0.741618 7.32993 0.800358 7.2712L7.00718 1.05909H2.28747C2.20356 1.05909 2.12307 1.02575 2.06373 0.966412C2.0044 0.907072 1.97106 0.826597 1.97106 0.742679C1.97106 0.658762 2.0044 0.578287 2.06373 0.518947C2.12307 0.459607 2.20356 0.426277 2.28747 0.42627H7.77188C7.85573 0.426277 7.9362 0.459607 7.9956 0.518947C8.05493 0.578287 8.08823 0.658762 8.08823 0.742679Z" fill="#F4F2ED"/>
</svg>
