<svg width="150" height="63" viewBox="0 0 150 63" fill="none" xmlns="http://www.w3.org/2000/svg">
<g id="62948e04394a4ca8365abbd3_file%20(15).svg">
<path id="Vector" d="M67.6293 22.4994C68.0261 22.916 68.6313 23.1243 69.4446 23.1243C70.2579 23.1243 70.8532 22.916 71.23 22.4994C71.6073 22.0629 71.7955 21.5272 71.7955 20.8924C71.7955 20.2178 71.6073 19.6722 71.23 19.2556C70.8532 18.8389 70.2579 18.6306 69.4446 18.6306C68.6313 18.6306 68.0261 18.8389 67.6293 19.2556C67.2521 19.6722 67.0638 20.2178 67.0638 20.8924C67.0638 21.5272 67.2521 22.0629 67.6293 22.4994Z" fill="white"/>
<path id="Vector_2" d="M48.7373 25.0586L53.7966 41.2181H60.4329L64.8075 25.0586H60.82L57.5281 37.8256H56.8254L52.9932 25.0586H48.7373Z" fill="white"/>
<path id="Vector_3" d="M81.2054 41.7241C78.9835 41.7241 77.2374 41.2579 75.9678 40.3255C74.7181 39.3732 74.0632 38.0635 74.0037 36.3972H77.7235C77.7831 36.9527 78.0908 37.4587 78.646 37.915C79.2016 38.3713 80.0748 38.5992 81.265 38.5992C82.257 38.5992 83.0405 38.4209 83.616 38.0635C84.2112 37.7065 84.5087 37.2204 84.5087 36.6053C84.5087 36.0698 84.2807 35.6432 83.8244 35.3258C83.388 35.0083 82.6339 34.8 81.5625 34.7008L80.134 34.552C78.3287 34.3536 76.94 33.8378 75.9678 33.0045C74.9957 32.1712 74.5096 31.0602 74.5096 29.6714C74.5096 28.5604 74.7872 27.6279 75.3428 26.874C75.8983 26.1201 76.6624 25.5547 77.6345 25.1777C78.6262 24.7809 79.7571 24.5825 81.0271 24.5825C83.0108 24.5825 84.6179 25.019 85.8481 25.8919C87.078 26.7649 87.7229 28.0446 87.7825 29.7309H84.0623C84.0226 29.1754 83.745 28.6993 83.2292 28.3025C82.7133 27.9057 81.9695 27.7073 80.9973 27.7073C80.1241 27.7073 79.4498 27.8759 78.9736 28.2132C78.4975 28.5505 78.2592 28.9869 78.2592 29.5226C78.2592 30.0385 78.4478 30.4353 78.8247 30.713C79.2214 30.9908 79.8564 31.1792 80.7293 31.2784L82.1577 31.4272C84.0623 31.6256 85.5503 32.1514 86.6217 33.0045C87.713 33.8576 88.2587 35.0083 88.2587 36.4567C88.2587 37.5282 87.9608 38.4606 87.3659 39.2541C86.7905 40.0277 85.9768 40.6329 84.9256 41.0693C83.8741 41.5058 82.6339 41.7241 81.2054 41.7241Z" fill="white"/>
<path id="Vector_4" d="M90.6639 22.4994C91.061 22.916 91.6658 23.1243 92.4795 23.1243C93.2928 23.1243 93.8881 22.916 94.265 22.4994C94.6418 22.0629 94.8304 21.5272 94.8304 20.8924C94.8304 20.2178 94.6418 19.6722 94.265 19.2556C93.8881 18.8389 93.2928 18.6306 92.4795 18.6306C91.6658 18.6306 91.061 18.8389 90.6639 19.2556C90.287 19.6722 90.0988 20.2178 90.0988 20.8924C90.0988 21.5272 90.287 22.0629 90.6639 22.4994Z" fill="white"/>
<path id="Vector_5" fill-rule="evenodd" clip-rule="evenodd" d="M106.145 41.7836C104.716 41.7836 103.457 41.5553 102.365 41.099C101.274 40.6427 100.352 40.0276 99.5976 39.254C98.8438 38.4605 98.2684 37.5674 97.8716 36.5754C97.4948 35.5836 97.3062 34.5519 97.3062 33.4806V32.8556C97.3062 31.7446 97.5047 30.6931 97.9014 29.7011C98.318 28.6893 98.9034 27.7965 99.6571 27.0227C100.431 26.2291 101.364 25.6141 102.455 25.1776C103.546 24.7213 104.776 24.4932 106.145 24.4932C107.514 24.4932 108.744 24.7213 109.835 25.1776C110.926 25.6141 111.849 26.2291 112.603 27.0227C113.376 27.7965 113.962 28.6893 114.358 29.7011C114.755 30.6931 114.954 31.7446 114.954 32.8556V33.4806C114.954 34.5519 114.755 35.5836 114.358 36.5754C113.982 37.5674 113.416 38.4605 112.662 39.254C111.908 40.0276 110.986 40.6427 109.894 41.099C108.804 41.5553 107.553 41.7836 106.145 41.7836ZM106.145 38.2421C107.157 38.2421 108.01 38.0237 108.704 37.5873C109.398 37.131 109.924 36.5262 110.282 35.7721C110.639 34.9983 110.817 34.1254 110.817 33.1532C110.817 32.1612 110.629 31.2883 110.252 30.5344C109.894 29.7606 109.359 29.1555 108.645 28.719C107.95 28.2627 107.117 28.0346 106.145 28.0346C105.173 28.0346 104.33 28.2627 103.615 28.719C102.921 29.1555 102.385 29.7606 102.008 30.5344C101.631 31.2883 101.443 32.1612 101.443 33.1532C101.443 34.1254 101.621 34.9983 101.979 35.7721C102.356 36.5262 102.891 37.131 103.585 37.5873C104.28 38.0237 105.133 38.2421 106.145 38.2421Z" fill="white"/>
<path id="Vector_6" d="M120.719 27.8858C120.576 28.2413 120.457 28.6263 120.362 29.0408V25.0587H117.088V41.2182H121.225V31.7248C121.225 30.6733 121.532 29.8401 122.147 29.225C122.782 28.5902 123.605 28.2727 124.617 28.2727C125.609 28.2727 126.383 28.5802 126.938 29.1953C127.514 29.8103 127.801 30.6138 127.801 31.6058V41.2182H131.938V31.9629C131.938 29.5028 131.442 27.6577 130.45 26.4276C129.458 25.1777 128 24.5527 126.075 24.5527H125.897C124.607 24.5527 123.526 24.8305 122.653 25.386C121.8 25.9415 121.155 26.7748 120.719 27.8858Z" fill="white"/>
<path id="Vector_7" d="M67.9269 28.1536V41.2181H72.0637V25.0586H65.6653V28.1536H67.9269Z" fill="white"/>
<path id="Vector_8" d="M90.9617 28.1536V41.2181H95.0981V25.0586H88.6997V28.1536H90.9617Z" fill="white"/>
<path id="Vector_9" fill-rule="evenodd" clip-rule="evenodd" d="M30.8468 44.5392C38.0012 44.5392 43.8011 38.7393 43.8011 31.585C43.8011 24.4305 38.0012 18.6306 30.8468 18.6306C23.6923 18.6306 17.8925 24.4305 17.8925 31.585C17.8925 38.7393 23.6923 44.5392 30.8468 44.5392ZM40.3805 30.2407C39.1726 31.6532 37.4711 32.5329 35.586 32.5329C31.9214 32.5329 28.9508 29.2086 28.9508 25.1078C28.9508 24.0761 29.1388 23.0936 29.4786 22.2008C24.8867 22.8982 21.3679 26.863 21.3679 31.6497C21.3679 33.0463 21.6675 34.373 22.2058 35.5689C22.752 35.0609 23.5195 34.7447 24.3696 34.7447C26.0273 34.7447 27.3712 35.9471 27.3712 37.4304C27.3712 38.4263 26.7652 39.2956 25.8652 39.7593C27.3327 40.6772 29.0673 41.2076 30.9257 41.2076C36.2044 41.2076 40.4837 36.9283 40.4837 31.6497C40.4837 31.171 40.4482 30.7005 40.3805 30.2407Z" fill="white"/>
<g id="Mask group">
<mask id="mask0_0_621" style="mask-type:luminance" maskUnits="userSpaceOnUse" x="17" y="18" width="27" height="27">
<g id="Group">
<path id="Vector_10" fill-rule="evenodd" clip-rule="evenodd" d="M30.8468 44.5392C38.0012 44.5392 43.8011 38.7393 43.8011 31.585C43.8011 24.4305 38.0012 18.6306 30.8468 18.6306C23.6923 18.6306 17.8925 24.4305 17.8925 31.585C17.8925 38.7393 23.6923 44.5392 30.8468 44.5392ZM40.3805 30.2407C39.1726 31.6532 37.4711 32.5329 35.586 32.5329C31.9214 32.5329 28.9508 29.2086 28.9508 25.1078C28.9508 24.0761 29.1388 23.0936 29.4786 22.2008C24.8867 22.8982 21.3679 26.863 21.3679 31.6497C21.3679 33.0463 21.6675 34.373 22.2058 35.5689C22.752 35.0609 23.5195 34.7447 24.3696 34.7447C26.0273 34.7447 27.3712 35.9471 27.3712 37.4304C27.3712 38.4263 26.7652 39.2956 25.8652 39.7593C27.3327 40.6772 29.0673 41.2076 30.9257 41.2076C36.2044 41.2076 40.4837 36.9283 40.4837 31.6497C40.4837 31.171 40.4482 30.7005 40.3805 30.2407Z" fill="white"/>
</g>
</mask>
<g mask="url(#mask0_0_621)">
<path id="Vector_11" d="M40.3805 30.2408L41.3179 30.1023L41.0137 28.0418L39.66 29.6248L40.3805 30.2408ZM29.4786 22.2009L30.3645 22.538L30.9423 21.0198L29.3363 21.2638L29.4786 22.2009ZM22.2058 35.569L21.3415 35.9581L21.8839 37.1631L22.8515 36.263L22.2058 35.569ZM25.8652 39.7594L25.431 38.9167L23.95 39.68L25.3626 40.5632L25.8652 39.7594ZM42.8534 31.5851C42.8534 38.2161 37.4778 43.5917 30.8468 43.5917V45.4874C38.5248 45.4874 44.7491 39.2631 44.7491 31.5851H42.8534ZM30.8468 19.5786C37.4778 19.5786 42.8534 24.9541 42.8534 31.5851H44.7491C44.7491 23.9071 38.5248 17.6829 30.8468 17.6829V19.5786ZM18.8403 31.5851C18.8403 24.9541 24.2158 19.5786 30.8468 19.5786V17.6829C23.1688 17.6829 16.9446 23.9071 16.9446 31.5851H18.8403ZM30.8468 43.5917C24.2158 43.5917 18.8403 38.2161 18.8403 31.5851H16.9446C16.9446 39.2631 23.1688 45.4874 30.8468 45.4874V43.5917ZM35.586 33.4809C37.7789 33.4809 39.7338 32.4555 41.1009 30.8569L39.66 29.6248C38.6113 30.8512 37.1634 31.5851 35.586 31.5851V33.4809ZM28.0029 25.1079C28.0029 29.6291 31.3005 33.4809 35.586 33.4809V31.5851C32.5424 31.5851 29.8986 28.7883 29.8986 25.1079H28.0029ZM28.5927 21.8637C28.212 22.864 28.0029 23.9608 28.0029 25.1079H29.8986C29.8986 24.1917 30.0656 23.3234 30.3645 22.538L28.5927 21.8637ZM22.3158 31.6498C22.3158 27.3387 25.4852 23.7661 29.6209 23.138L29.3363 21.2638C24.2881 22.0305 20.42 26.3876 20.42 31.6498H22.3158ZM23.0701 35.18C22.5858 34.1039 22.3158 32.9097 22.3158 31.6498H20.42C20.42 33.1832 20.7492 34.6423 21.3415 35.9581L23.0701 35.18ZM24.3695 33.7969C23.2849 33.7969 22.2853 34.2005 21.5602 34.875L22.8515 36.263C23.2186 35.9215 23.7541 35.6927 24.3695 35.6927V33.7969ZM28.319 37.4305C28.319 35.3273 26.4489 33.7969 24.3695 33.7969V35.6927C25.6057 35.6927 26.4233 36.5672 26.4233 37.4305H28.319ZM26.2993 40.6022C27.466 40.0009 28.319 38.833 28.319 37.4305H26.4233C26.4233 38.0197 26.0644 38.5905 25.431 38.9167L26.2993 40.6022ZM30.9257 40.2597C29.2501 40.2597 27.689 39.7821 26.3677 38.9557L25.3626 40.5632C26.9764 41.5722 28.8844 42.1554 30.9257 42.1554V40.2597ZM39.5356 31.6498C39.5356 36.4048 35.6807 40.2597 30.9257 40.2597V42.1554C36.7276 42.1554 41.4313 37.4521 41.4313 31.6498H39.5356ZM39.4427 30.3793C39.5037 30.7934 39.5356 31.2176 39.5356 31.6498H41.4313C41.4313 31.1246 41.3927 30.6078 41.3179 30.1023L39.4427 30.3793Z" fill="white"/>
</g>
</g>
</g>
</svg>
